<?xml version="1.0" encoding="UTF-8" standalone="no" ?>
<!DOCTYPE svg PUBLIC "-//W3C//DTD SVG 1.1//EN" "http://www.w3.org/Graphics/SVG/1.1/DTD/svg11.dtd">
<svg xmlns="http://www.w3.org/2000/svg" xmlns:xlink="http://www.w3.org/1999/xlink" version="1.1" width="500" height="500" viewBox="0 0 500 500" xml:space="preserve">
<desc>Created with Fabric.js 3.6.3</desc>
<defs>
</defs>
<rect x="0" y="0" width="100%" height="100%" fill="#588F27"></rect>
<g transform="matrix(2.3232 0 0 2.3232 249.5372038995726 237.41)"  >
<g style=""   >
		<g transform="matrix(1 0 0 1 0.5030000000000001 -38.14339934405318)"  >
<path style="stroke: none; stroke-width: 1; stroke-dasharray: none; stroke-linecap: butt; stroke-dashoffset: 0; stroke-linejoin: miter; stroke-miterlimit: 4; fill: rgb(255,255,255); fill-rule: nonzero; opacity: 1;"  transform=" translate(-46.4865, -11.356600655946819)" d="M 83.281 10.474 l -13.139 12.24 H 22.824 L 9.692 10.474 c 0 0 6.537 -9.134 17.312 -10.332 C 37.551 -1.031 41.21 5.441 46.49 5.688 c 5.268 -0.248 8.952 -6.719 19.479 -5.547 C 76.757 1.339 83.281 10.474 83.281 10.474 z" stroke-linecap="round" />
</g>
		<g transform="matrix(1 0 0 1 0.5006622363638087 15.788499999999999)"  >
<path style="stroke: none; stroke-width: 1; stroke-dasharray: none; stroke-linecap: butt; stroke-dashoffset: 0; stroke-linejoin: miter; stroke-miterlimit: 4; fill: rgb(255,255,255); fill-rule: nonzero; opacity: 1;"  transform=" translate(-46.48416223636381, -65.2885)" d="M 73.698 30.578 H 19.276 c 0 0 -26.126 20.566 -17.546 58.471 c 0 0 2.858 10.95 15.997 10.95 h 57.54 c 13.112 0 15.971 -10.95 15.971 -10.95 C 99.818 51.145 73.698 30.578 73.698 30.578 z M 68.528 42.173 c 0 0 -6.374 18.848 -12.298 12.93 C 50.332 49.205 66.582 42.603 68.528 42.173 z M 53.352 38.547 c 0 0 -4.245 3.359 -1.309 11.133 c 3.294 8.718 -2.917 10.755 -5.41 8.255 C 41.06 52.356 51.333 39.217 53.352 38.547 z M 45.318 46.568 c 0 0 -4.245 3.373 -1.309 11.133 c 3.301 8.73 -2.917 10.769 -5.417 8.275 C 33 60.39 43.3 47.238 45.318 46.568 z M 32.395 81.919 l -7.787 6.557 c -1.562 1.575 -3.47 -1.621 -2.728 -2.37 l 6.614 -8.079 c 0.671 -0.684 0.951 0.794 2.025 1.881 C 31.594 80.969 33.065 81.25 32.395 81.919 z M 30.311 74.244 c -5.586 -5.566 4.694 -18.718 6.739 -19.388 c 0 0 -4.251 3.359 -1.315 11.133 C 39.035 74.707 32.798 76.757 30.311 74.244 z M 36.32 80.259 c -2.52 -2.513 -0.475 -8.736 8.255 -5.442 c 7.754 2.942 11.133 -1.296 11.133 -1.296 C 55.051 75.527 41.894 85.827 36.32 80.259 z M 44.589 71.972 c -2.513 -2.5 -0.456 -8.718 8.255 -5.443 c 7.78 2.943 11.146 -1.282 11.146 -1.282 C 63.313 67.258 50.168 77.551 44.589 71.972 z M 52.623 63.938 c -2.5 -2.5 -0.475 -8.725 8.275 -5.43 c 7.74 2.956 11.133 -1.296 11.133 -1.296 C 71.354 59.238 58.196 69.517 52.623 63.938 z" stroke-linecap="round" />
</g>
</g>
</g>
<g transform="matrix(0.8 0 0 0.8000000000000002 250.21000000000004 327.6416599986961)"  >
<path style="stroke: none; stroke-width: 1; stroke-dasharray: none; stroke-linecap: butt; stroke-dashoffset: 0; stroke-linejoin: miter; stroke-miterlimit: 4; fill: rgb(88,143,39); fill-rule: nonzero; opacity: 1;"  transform=" translate(-249.95000000000002, -250)" d="M 76.9 288.8 h 346.2 c 21.4 0 38.8 -17.4 38.8 -38.8 v 0 c 0 -21.4 -17.4 -38.8 -38.8 -38.8 H 76.9 C 55.4 211.2 38 228.6 38 250 v 0 C 38 271.4 55.4 288.8 76.9 288.8 z" stroke-linecap="round" />
</g>
<g transform="matrix(1 0 0 1 248.86352737855333 327.92215999869615)" style=""  ><path fill="#ffffff" opacity="1" d="M-74.19-10.57L-74.19-5.82L-87.88-5.82L-87.88-2.85L-77.16-2.85L-77.16 1.90L-87.88 1.90L-87.88 9.33L-93.23 9.33L-93.23-10.57L-74.19-10.57Z"/><path fill="#ffffff" opacity="1" d="M-65.87 9.33L-70.69 9.33L-70.69 8.14L-61.84-10.57L-56.49-10.57L-47.64 8.14L-47.64 9.33L-52.45 9.33L-54.17 5.47L-64.18 5.47L-65.87 9.33ZM-62.19 1.01L-56.13 1.01L-59.16-5.79L-62.19 1.01Z"/><path fill="#ffffff" opacity="1" d="M-20.20 9.33L-25.36 9.33L-29.34 3.09Q-30.95 3.09-32.43 3.06Q-33.92 3.03-35.34 2.80L-35.34 2.80L-35.34 9.33L-40.69 9.33L-40.69-10.57Q-38.13-10.87-35.33-11.01Q-32.52-11.16-29.82-11.16L-29.82-11.16L-28.99-11.16Q-26.49-11.16-24.86-10.64Q-23.23-10.12-22.25-9.23Q-21.27-8.34-20.88-7.15Q-20.49-5.97-20.49-4.63L-20.49-4.63L-20.49-3.44Q-20.49-1.57-21.24-0.04Q-21.98 1.49-23.88 2.32L-23.88 2.32L-20.20 8.14L-20.20 9.33ZM-29.76-6.41L-29.76-6.41Q-30.80-6.41-32.33-6.35Q-33.86-6.29-35.34-6.14L-35.34-6.14L-35.34-1.93Q-33.95-1.75-32.70-1.70Q-31.45-1.66-30.68-1.66L-30.68-1.66Q-28.90-1.66-27.92-1.82Q-26.94-1.99-26.48-2.31Q-26.02-2.64-25.93-3.14Q-25.84-3.65-25.84-4.36L-25.84-4.36Q-25.84-4.75-25.90-5.12Q-25.96-5.49-26.33-5.79Q-26.70-6.08-27.50-6.25Q-28.30-6.41-29.76-6.41Z"/><path fill="#ffffff" opacity="1" d="M1.19 5.26L-1.54 5.26L-7.13-2.55L-7.13 9.33L-12.47 9.33L-12.47-10.57L-7.13-10.57L-0.18-0.38L6.77-10.57L12.12-10.57L12.12 9.33L6.77 9.33L6.77-2.55L1.19 5.26Z"/><path fill="#ffffff" opacity="1" d="M23.88 9.33L19.07 9.33L19.07 8.14L27.92-10.57L33.26-10.57L42.11 8.14L42.11 9.33L37.30 9.33L35.58 5.47L25.57 5.47L23.88 9.33ZM27.56 1.01L33.62 1.01L30.59-5.79L27.56 1.01Z"/><path fill="#ffffff" opacity="1" d="M47.76 0.15L47.76-1.39Q47.76-3.41 48.26-5.19Q48.77-6.98 49.99-8.30Q51.20-9.62 53.28-10.39Q55.36-11.16 58.51-11.16L58.51-11.16L59.58-11.16Q61.60-11.16 63.50-10.91Q65.40-10.66 67.24-10.18L67.24-10.18L67.24-5.34Q66.20-5.64 65.15-5.85Q64.09-6.05 63.07-6.19Q62.04-6.32 61.11-6.38Q60.17-6.44 59.43-6.44L59.43-6.44Q57.11-6.44 55.85-6.01Q54.59-5.58 54.01-4.81Q53.43-4.04 53.33-2.97Q53.22-1.90 53.22-0.62L53.22-0.62Q53.22 0.66 53.33 1.73Q53.43 2.80 54.01 3.58Q54.59 4.37 55.85 4.80Q57.11 5.23 59.43 5.23L59.43 5.23Q60.17 5.23 61.11 5.17Q62.04 5.11 63.07 4.98Q64.09 4.85 65.15 4.62Q66.20 4.40 67.24 4.10L67.24 4.10L67.24 8.97Q65.40 9.42 63.50 9.67Q61.60 9.92 59.58 9.92L59.58 9.92L58.51 9.92Q55.36 9.92 53.28 9.15Q51.20 8.38 49.99 7.06Q48.77 5.74 48.26 3.95Q47.76 2.17 47.76 0.15L47.76 0.15Z"/><path fill="#ffffff" opacity="1" d="M81.59 9.33L81.59 1.93L73.80-9.38L73.80-10.57L79.06-10.57L84.26-2.31L89.49-10.57L94.71-10.57L94.71-9.38L86.93 1.93L86.93 9.33L81.59 9.33Z"/></g><g transform="matrix(0.93 0 0 -1.42 249.82596833807344 357.20905967706966)"  >
<path style="stroke: none; stroke-width: 1; stroke-dasharray: none; stroke-linecap: butt; stroke-dashoffset: 0; stroke-linejoin: miter; stroke-miterlimit: 4; fill: rgb(255,255,255); fill-rule: nonzero; opacity: 1;"  transform=" translate(-49.95, -50)" d="M 91.7 49 H 8.3 c -0.6 0 -1 0.4 -1 1 s 0.4 1 1 1 h 83.3 c 0.6 0 1 -0.4 1 -1 S 92.2 49 91.7 49 z" stroke-linecap="round" />
</g>
<g transform="matrix(1 0 0 1 249.2423901169464 375.2441773153828)" style=""  ><path fill="#ffffff" opacity="1" d="M-38.58-4.48L-38.58-2.47L-44.39-2.47L-44.39-1.21L-39.84-1.21L-39.84 0.81L-44.39 0.81L-44.39 3.96L-46.66 3.96L-46.66-4.48L-38.58-4.48Z"/><path fill="#ffffff" opacity="1" d="M-36.68 3.96L-38.72 3.96L-38.72 3.45L-34.96-4.48L-32.70-4.48L-28.94 3.45L-28.94 3.96L-30.98 3.96L-31.71 2.32L-35.96 2.32L-36.68 3.96ZM-35.12 0.43L-32.55 0.43L-33.83-2.46L-35.12 0.43Z"/><path fill="#ffffff" opacity="1" d="M-18.93 3.96L-21.12 3.96L-22.81 1.31Q-23.49 1.31-24.12 1.30Q-24.75 1.29-25.35 1.19L-25.35 1.19L-25.35 3.96L-27.62 3.96L-27.62-4.48Q-26.54-4.61-25.34-4.67Q-24.15-4.74-23.01-4.74L-23.01-4.74L-22.65-4.74Q-21.60-4.74-20.90-4.52Q-20.21-4.29-19.79-3.92Q-19.38-3.54-19.21-3.03Q-19.05-2.53-19.05-1.96L-19.05-1.96L-19.05-1.46Q-19.05-0.67-19.37-0.02Q-19.68 0.63-20.49 0.98L-20.49 0.98L-18.93 3.45L-18.93 3.96ZM-22.98-2.72L-22.98-2.72Q-23.42-2.72-24.07-2.69Q-24.72-2.67-25.35-2.61L-25.35-2.61L-25.35-0.82Q-24.76-0.74-24.23-0.72Q-23.70-0.70-23.37-0.70L-23.37-0.70Q-22.62-0.70-22.20-0.77Q-21.79-0.84-21.59-0.98Q-21.39-1.12-21.36-1.33Q-21.32-1.55-21.32-1.85L-21.32-1.85Q-21.32-2.01-21.34-2.17Q-21.37-2.33-21.53-2.46Q-21.68-2.58-22.02-2.65Q-22.36-2.72-22.98-2.72Z"/><path fill="#ffffff" opacity="1" d="M-11.48 2.23L-12.64 2.23L-15.01-1.08L-15.01 3.96L-17.27 3.96L-17.27-4.48L-15.01-4.48L-12.06-0.16L-9.11-4.48L-6.84-4.48L-6.84 3.96L-9.11 3.96L-9.11-1.08L-11.48 2.23Z"/><path fill="#ffffff" opacity="1" d=""/><path fill="#ffffff" opacity="1" d="M6.27-4.48L6.27-2.47L0.47-2.47L0.47-1.21L5.01-1.21L5.01 0.81L0.47 0.81L0.47 3.96L-1.80 3.96L-1.80-4.48L6.27-4.48Z"/><path fill="#ffffff" opacity="1" d="M16.47 3.96L14.28 3.96L12.59 1.31Q11.91 1.31 11.28 1.30Q10.65 1.29 10.04 1.19L10.04 1.19L10.04 3.96L7.77 3.96L7.77-4.48Q8.86-4.61 10.05-4.67Q11.24-4.74 12.39-4.74L12.39-4.74L12.74-4.74Q13.80-4.74 14.49-4.52Q15.18-4.29 15.60-3.92Q16.01-3.54 16.18-3.03Q16.34-2.53 16.34-1.96L16.34-1.96L16.34-1.46Q16.34-0.67 16.03-0.02Q15.71 0.63 14.91 0.98L14.91 0.98L16.47 3.45L16.47 3.96ZM12.41-2.72L12.41-2.72Q11.97-2.72 11.32-2.69Q10.67-2.67 10.04-2.61L10.04-2.61L10.04-0.82Q10.63-0.74 11.16-0.72Q11.69-0.70 12.02-0.70L12.02-0.70Q12.78-0.70 13.19-0.77Q13.61-0.84 13.80-0.98Q14.00-1.12 14.04-1.33Q14.07-1.55 14.07-1.85L14.07-1.85Q14.07-2.01 14.05-2.17Q14.02-2.33 13.87-2.46Q13.71-2.58 13.37-2.65Q13.03-2.72 12.41-2.72Z"/><path fill="#ffffff" opacity="1" d="M26.20-4.48L26.20-2.47L20.39-2.47L20.39-1.21L24.94-1.21L24.94 0.81L20.39 0.81L20.39 1.94L26.20 1.94L26.20 3.96L18.12 3.96L18.12-4.48L26.20-4.48Z"/><path fill="#ffffff" opacity="1" d="M31.87 2.19L31.87 2.19Q32.55 2.19 32.93 2.12Q33.31 2.06 33.51 1.95Q33.71 1.84 33.76 1.71Q33.81 1.58 33.81 1.46L33.81 1.46Q33.81 1.24 33.70 1.10Q33.59 0.97 33.36 0.90Q33.13 0.82 32.74 0.79Q32.36 0.76 31.82 0.75L31.82 0.75Q31.50 0.73 31.07 0.71Q30.64 0.68 30.19 0.60Q29.74 0.52 29.30 0.36Q28.85 0.20 28.51-0.08Q28.16-0.36 27.95-0.79Q27.73-1.22 27.73-1.84L27.73-1.84L27.73-2.00Q27.73-2.54 27.93-3.04Q28.12-3.54 28.60-3.92Q29.07-4.29 29.87-4.52Q30.67-4.74 31.87-4.74L31.87-4.74L32.32-4.74Q33.19-4.74 34.01-4.63Q34.83-4.52 35.61-4.32L35.61-4.32L35.61-2.24Q34.69-2.46 33.79-2.58Q32.89-2.71 31.95-2.71L31.95-2.71Q31.27-2.71 30.88-2.64Q30.49-2.57 30.30-2.46Q30.10-2.35 30.05-2.23Q30.00-2.12 30.00-2.00L30.00-2.00Q30.00-1.77 30.11-1.64Q30.21-1.50 30.45-1.42Q30.69-1.35 31.07-1.31Q31.45-1.28 31.98-1.27L31.98-1.27Q32.28-1.26 32.70-1.24Q33.11-1.22 33.57-1.14Q34.03-1.06 34.48-0.89Q34.93-0.73 35.28-0.45Q35.63-0.16 35.85 0.27Q36.07 0.71 36.07 1.32L36.07 1.32L36.07 1.49Q36.07 2.03 35.88 2.52Q35.68 3.01 35.20 3.39Q34.73 3.77 33.93 3.99Q33.14 4.21 31.93 4.21L31.93 4.21L31.47 4.21Q30.48 4.21 29.54 4.10Q28.60 4.00 27.69 3.81L27.69 3.81L27.69 1.69Q28.72 1.92 29.81 2.06Q30.90 2.19 31.87 2.19Z"/><path fill="#ffffff" opacity="1" d="M37.71-4.48L39.98-4.48L39.98-1.21L44.39-1.21L44.39-4.48L46.66-4.48L46.66 3.96L44.39 3.96L44.39 0.81L39.98 0.81L39.98 3.96L37.71 3.96L37.71-4.48Z"/></g></svg>